<?xml version="1.0" standalone="no"?>
<!DOCTYPE svg PUBLIC "-//W3C//DTD SVG 20010904//EN"
 "http://www.w3.org/TR/2001/REC-SVG-20010904/DTD/svg10.dtd">
<svg version="1.0" xmlns="http://www.w3.org/2000/svg"
 width="512.000000pt" height="512.000000pt" viewBox="0 0 512.000000 512.000000"
 preserveAspectRatio="xMidYMid meet">
<metadata>
Created by potrace 1.14, written by Peter Selinger 2001-2017
</metadata>
<g transform="translate(0.000000,512.000000) scale(0.100000,-0.100000)"
fill="#000000" stroke="none">
<path d="M2787 4260 c-63 -4 -91 -9 -98 -20 -13 -20 -5 -130 12 -157 25 -41
53 -47 215 -48 l154 0 95 -114 95 -114 0 -68 0 -68 -52 -10 c-29 -6 -89 -18
-133 -25 -246 -44 -268 -54 -263 -120 3 -35 8 -43 35 -57 25 -13 42 -14 75 -7
214 45 450 83 457 74 23 -29 131 -403 166 -571 49 -237 59 -336 60 -555 0
-189 -4 -245 -29 -359 -26 -120 -60 -173 -138 -213 -42 -22 -51 -23 -338 -23
-281 0 -298 1 -358 23 -279 100 -441 391 -376 672 11 47 99 299 132 380 6 14
26 68 45 120 31 85 34 101 26 148 -12 79 -52 156 -111 215 -64 64 -141 103
-228 116 -36 5 -320 8 -631 7 -523 -2 -568 -3 -593 -19 -31 -21 -45 -51 -41
-92 10 -120 72 -210 180 -261 28 -13 46 -24 40 -25 -5 0 -19 -2 -30 -4 -11 -1
-40 -5 -65 -9 -60 -8 -71 -11 -170 -40 -346 -101 -633 -351 -795 -689 -87
-180 -120 -343 -124 -604 -4 -255 -6 -253 260 -253 128 0 169 -3 170 -12 11
-175 104 -354 241 -469 69 -58 192 -119 278 -139 75 -18 222 -16 300 4 199 50
369 193 452 381 27 62 61 202 52 217 -3 4 1 11 9 13 7 3 430 7 938 9 830 3
930 5 984 20 33 9 70 24 83 32 12 8 22 11 23 7 0 -5 2 -34 4 -65 11 -179 76
-323 199 -442 176 -169 411 -229 649 -165 160 43 329 185 405 340 101 204 95
428 -15 629 -51 93 -168 205 -268 257 l-80 42 50 1 c157 2 214 22 215 74 0 66
-133 228 -244 295 -120 72 -276 115 -402 109 -57 -2 -94 10 -94 32 0 4 -35 67
-77 141 -284 497 -433 761 -433 767 0 4 59 6 131 4 73 -2 142 -1 155 2 52 13
54 22 54 235 0 184 -1 199 -20 216 -26 24 -51 20 -353 -58 -142 -37 -266 -67
-275 -67 -9 0 -27 15 -39 33 -12 17 -33 43 -45 57 -13 14 -39 45 -58 70 -34
44 -66 81 -141 163 l-35 40 -100 1 c-54 0 -139 -1 -187 -4z"/>
</g>
</svg>
